<?xml version="1.0" standalone="no"?><svg xmlns="http://www.w3.org/2000/svg" viewBox="0 0 1440 320"><path fill="#1A202C" fill-opacity="1" d="M0,128L34.3,112C68.6,96,137,64,206,74.7C274.3,85,343,139,411,176C480,213,549,235,617,245.3C685.7,256,754,256,823,224C891.4,192,960,128,1029,122.7C1097.1,117,1166,171,1234,202.7C1302.9,235,1371,245,1406,250.7L1440,256L1440,320L1405.7,320C1371.4,320,1303,320,1234,320C1165.7,320,1097,320,1029,320C960,320,891,320,823,320C754.3,320,686,320,617,320C548.6,320,480,320,411,320C342.9,320,274,320,206,320C137.1,320,69,320,34,320L0,320Z"></path></svg>