<?xml version="1.0" standalone="no"?><svg xmlns="http://www.w3.org/2000/svg" viewBox="0 0 1440 320"><path fill="#41337A" fill-opacity="1" d="M0,128L30,128C60,128,120,128,180,144C240,160,300,192,360,208C420,224,480,224,540,192C600,160,660,96,720,90.7C780,85,840,139,900,181.3C960,224,1020,256,1080,234.7C1140,213,1200,139,1260,122.7C1320,107,1380,149,1410,170.7L1440,192L1440,0L1410,0C1380,0,1320,0,1260,0C1200,0,1140,0,1080,0C1020,0,960,0,900,0C840,0,780,0,720,0C660,0,600,0,540,0C480,0,420,0,360,0C300,0,240,0,180,0C120,0,60,0,30,0L0,0Z"></path></svg>